%TF.GenerationSoftware,KiCad,Pcbnew,7.0.10*%
%TF.CreationDate,2024-06-13T10:18:47+07:00*%
%TF.ProjectId,board_dkth,626f6172-645f-4646-9b74-682e6b696361,rev?*%
%TF.SameCoordinates,Original*%
%TF.FileFunction,Soldermask,Top*%
%TF.FilePolarity,Negative*%
%FSLAX46Y46*%
G04 Gerber Fmt 4.6, Leading zero omitted, Abs format (unit mm)*
G04 Created by KiCad (PCBNEW 7.0.10) date 2024-06-13 10:18:47*
%MOMM*%
%LPD*%
G01*
G04 APERTURE LIST*
G04 Aperture macros list*
%AMRoundRect*
0 Rectangle with rounded corners*
0 $1 Rounding radius*
0 $2 $3 $4 $5 $6 $7 $8 $9 X,Y pos of 4 corners*
0 Add a 4 corners polygon primitive as box body*
4,1,4,$2,$3,$4,$5,$6,$7,$8,$9,$2,$3,0*
0 Add four circle primitives for the rounded corners*
1,1,$1+$1,$2,$3*
1,1,$1+$1,$4,$5*
1,1,$1+$1,$6,$7*
1,1,$1+$1,$8,$9*
0 Add four rect primitives between the rounded corners*
20,1,$1+$1,$2,$3,$4,$5,0*
20,1,$1+$1,$4,$5,$6,$7,0*
20,1,$1+$1,$6,$7,$8,$9,0*
20,1,$1+$1,$8,$9,$2,$3,0*%
%AMOutline4P*
0 Free polygon, 4 corners , with rotation*
0 The origin of the aperture is its center*
0 number of corners: always 4*
0 $1 to $8 corner X, Y*
0 $9 Rotation angle, in degrees counterclockwise*
0 create outline with 4 corners*
4,1,4,$1,$2,$3,$4,$5,$6,$7,$8,$1,$2,$9*%
%AMOutline5P*
0 Free polygon, 5 corners , with rotation*
0 The origin of the aperture is its center*
0 number of corners: always 5*
0 $1 to $10 corner X, Y*
0 $11 Rotation angle, in degrees counterclockwise*
0 create outline with 5 corners*
4,1,5,$1,$2,$3,$4,$5,$6,$7,$8,$9,$10,$1,$2,$11*%
%AMOutline6P*
0 Free polygon, 6 corners , with rotation*
0 The origin of the aperture is its center*
0 number of corners: always 6*
0 $1 to $12 corner X, Y*
0 $13 Rotation angle, in degrees counterclockwise*
0 create outline with 6 corners*
4,1,6,$1,$2,$3,$4,$5,$6,$7,$8,$9,$10,$11,$12,$1,$2,$13*%
%AMOutline7P*
0 Free polygon, 7 corners , with rotation*
0 The origin of the aperture is its center*
0 number of corners: always 7*
0 $1 to $14 corner X, Y*
0 $15 Rotation angle, in degrees counterclockwise*
0 create outline with 7 corners*
4,1,7,$1,$2,$3,$4,$5,$6,$7,$8,$9,$10,$11,$12,$13,$14,$1,$2,$15*%
%AMOutline8P*
0 Free polygon, 8 corners , with rotation*
0 The origin of the aperture is its center*
0 number of corners: always 8*
0 $1 to $16 corner X, Y*
0 $17 Rotation angle, in degrees counterclockwise*
0 create outline with 8 corners*
4,1,8,$1,$2,$3,$4,$5,$6,$7,$8,$9,$10,$11,$12,$13,$14,$15,$16,$1,$2,$17*%
%AMFreePoly0*
4,1,19,0.500000,-0.750000,0.000000,-0.750000,0.000000,-0.744911,-0.071157,-0.744911,-0.207708,-0.704816,-0.327430,-0.627875,-0.420627,-0.520320,-0.479746,-0.390866,-0.500000,-0.250000,-0.500000,0.250000,-0.479746,0.390866,-0.420627,0.520320,-0.327430,0.627875,-0.207708,0.704816,-0.071157,0.744911,0.000000,0.744911,0.000000,0.750000,0.500000,0.750000,0.500000,-0.750000,0.500000,-0.750000,
$1*%
%AMFreePoly1*
4,1,19,0.000000,0.744911,0.071157,0.744911,0.207708,0.704816,0.327430,0.627875,0.420627,0.520320,0.479746,0.390866,0.500000,0.250000,0.500000,-0.250000,0.479746,-0.390866,0.420627,-0.520320,0.327430,-0.627875,0.207708,-0.704816,0.071157,-0.744911,0.000000,-0.744911,0.000000,-0.750000,-0.500000,-0.750000,-0.500000,0.750000,0.000000,0.750000,0.000000,0.744911,0.000000,0.744911,
$1*%
%AMFreePoly2*
4,1,19,0.550000,-0.750000,0.000000,-0.750000,0.000000,-0.744911,-0.071157,-0.744911,-0.207708,-0.704816,-0.327430,-0.627875,-0.420627,-0.520320,-0.479746,-0.390866,-0.500000,-0.250000,-0.500000,0.250000,-0.479746,0.390866,-0.420627,0.520320,-0.327430,0.627875,-0.207708,0.704816,-0.071157,0.744911,0.000000,0.744911,0.000000,0.750000,0.550000,0.750000,0.550000,-0.750000,0.550000,-0.750000,
$1*%
%AMFreePoly3*
4,1,19,0.000000,0.744911,0.071157,0.744911,0.207708,0.704816,0.327430,0.627875,0.420627,0.520320,0.479746,0.390866,0.500000,0.250000,0.500000,-0.250000,0.479746,-0.390866,0.420627,-0.520320,0.327430,-0.627875,0.207708,-0.704816,0.071157,-0.744911,0.000000,-0.744911,0.000000,-0.750000,-0.550000,-0.750000,-0.550000,0.750000,0.000000,0.750000,0.000000,0.744911,0.000000,0.744911,
$1*%
G04 Aperture macros list end*
%ADD10R,2.600000X2.600000*%
%ADD11C,2.600000*%
%ADD12RoundRect,0.127500X-0.322500X0.297500X-0.322500X-0.297500X0.322500X-0.297500X0.322500X0.297500X0*%
%ADD13RoundRect,0.150000X-0.525000X0.350000X-0.525000X-0.350000X0.525000X-0.350000X0.525000X0.350000X0*%
%ADD14RoundRect,0.367348X-0.532652X-1.382652X0.532652X-1.382652X0.532652X1.382652X-0.532652X1.382652X0*%
%ADD15RoundRect,0.127500X-0.297500X-0.322500X0.297500X-0.322500X0.297500X0.322500X-0.297500X0.322500X0*%
%ADD16R,2.300000X2.000000*%
%ADD17C,2.300000*%
%ADD18RoundRect,0.127500X0.322500X-0.297500X0.322500X0.297500X-0.322500X0.297500X-0.322500X-0.297500X0*%
%ADD19RoundRect,0.150000X0.525000X-0.350000X0.525000X0.350000X-0.525000X0.350000X-0.525000X-0.350000X0*%
%ADD20R,1.050000X1.875000*%
%ADD21FreePoly0,90.000000*%
%ADD22FreePoly1,90.000000*%
%ADD23RoundRect,0.127500X0.297500X0.322500X-0.297500X0.322500X-0.297500X-0.322500X0.297500X-0.322500X0*%
%ADD24R,3.500000X2.800000*%
%ADD25C,1.600000*%
%ADD26R,1.520000X1.780000*%
%ADD27RoundRect,0.250000X-1.950000X-1.000000X1.950000X-1.000000X1.950000X1.000000X-1.950000X1.000000X0*%
%ADD28Outline5P,-0.750000X0.120000X-0.570000X0.300000X0.750000X0.300000X0.750000X-0.300000X-0.750000X-0.300000X0.000000*%
%ADD29R,1.500000X0.600000*%
%ADD30RoundRect,0.090000X0.410000X0.210000X-0.410000X0.210000X-0.410000X-0.210000X0.410000X-0.210000X0*%
%ADD31R,1.700000X1.700000*%
%ADD32RoundRect,0.090000X-0.210000X0.410000X-0.210000X-0.410000X0.210000X-0.410000X0.210000X0.410000X0*%
%ADD33RoundRect,0.180000X-0.720000X1.020000X-0.720000X-1.020000X0.720000X-1.020000X0.720000X1.020000X0*%
%ADD34C,2.000000*%
%ADD35R,1.500000X2.000000*%
%ADD36R,3.800000X2.000000*%
%ADD37R,1.050000X1.500000*%
%ADD38O,1.050000X1.500000*%
%ADD39O,1.700000X1.700000*%
%ADD40Outline5P,-0.985000X0.000000X-0.685000X0.300000X0.985000X0.300000X0.985000X-0.300000X-0.985000X-0.300000X90.000000*%
%ADD41RoundRect,0.096000X0.204000X-0.889000X0.204000X0.889000X-0.204000X0.889000X-0.204000X-0.889000X0*%
%ADD42R,3.300000X2.410000*%
%ADD43R,0.900000X1.500000*%
%ADD44R,1.500000X0.900000*%
%ADD45C,0.600000*%
%ADD46R,3.800000X3.800000*%
%ADD47Outline4P,-0.750000X-0.750000X0.750000X-0.750000X0.750000X0.750000X-0.750000X0.750000X270.000000*%
%ADD48C,1.500000*%
%ADD49O,4.000000X2.000000*%
%ADD50R,2.000000X1.905000*%
%ADD51O,2.000000X1.905000*%
%ADD52C,2.500000*%
%ADD53C,1.000000*%
%ADD54R,1.600000X1.600000*%
%ADD55O,1.600000X1.600000*%
%ADD56RoundRect,0.367348X0.532652X1.382652X-0.532652X1.382652X-0.532652X-1.382652X0.532652X-1.382652X0*%
%ADD57FreePoly2,90.000000*%
%ADD58R,1.500000X1.000000*%
%ADD59FreePoly3,90.000000*%
%ADD60RoundRect,0.075000X-0.075000X0.337500X-0.075000X-0.337500X0.075000X-0.337500X0.075000X0.337500X0*%
%ADD61RoundRect,0.075000X-0.337500X0.075000X-0.337500X-0.075000X0.337500X-0.075000X0.337500X0.075000X0*%
%ADD62R,3.250000X3.250000*%
%ADD63RoundRect,0.250000X0.312500X1.450000X-0.312500X1.450000X-0.312500X-1.450000X0.312500X-1.450000X0*%
%ADD64R,2.200000X2.200000*%
%ADD65O,2.200000X2.200000*%
%ADD66RoundRect,0.150000X-0.350000X-0.525000X0.350000X-0.525000X0.350000X0.525000X-0.350000X0.525000X0*%
%ADD67C,2.200000*%
%ADD68RoundRect,0.250000X-0.550000X1.500000X-0.550000X-1.500000X0.550000X-1.500000X0.550000X1.500000X0*%
%ADD69R,0.700000X0.700000*%
%ADD70C,1.800000*%
%ADD71O,1.800000X2.800000*%
%ADD72C,2.400000*%
%ADD73O,2.400000X2.400000*%
%ADD74R,1.905000X2.000000*%
%ADD75O,1.905000X2.000000*%
G04 APERTURE END LIST*
D10*
%TO.C,J8*%
X172300000Y-47000000D03*
D11*
X167300000Y-47000000D03*
X162300000Y-47000000D03*
X157300000Y-47000000D03*
X152300000Y-47000000D03*
X147300000Y-47000000D03*
%TD*%
D12*
%TO.C,C1*%
X69175000Y-85225000D03*
X69175000Y-86775000D03*
%TD*%
D13*
%TO.C,R28*%
X150340000Y-65550000D03*
X150340000Y-67450000D03*
%TD*%
D14*
%TO.C,R9*%
X60675000Y-93000000D03*
X67150000Y-93000000D03*
%TD*%
D15*
%TO.C,C9*%
X149475000Y-98600000D03*
X147925000Y-98600000D03*
%TD*%
D16*
%TO.C,PS1*%
X93700000Y-60100000D03*
D17*
X93700000Y-65100000D03*
X123100000Y-54900000D03*
X123100000Y-70300000D03*
%TD*%
D18*
%TO.C,C10*%
X127525000Y-58005000D03*
X127525000Y-56455000D03*
%TD*%
%TO.C,LE3*%
X153104787Y-89804787D03*
X153104787Y-91354787D03*
%TD*%
%TO.C,R16*%
X160100000Y-89825000D03*
X160100000Y-91375000D03*
%TD*%
D19*
%TO.C,R4*%
X66600000Y-76725000D03*
X66600000Y-74825000D03*
%TD*%
%TO.C,R5*%
X74375000Y-76725000D03*
X74375000Y-74825000D03*
%TD*%
D20*
%TO.C,D2*%
X69175000Y-82987500D03*
X71675000Y-77662500D03*
X71675000Y-82987500D03*
X69175000Y-77662500D03*
%TD*%
D21*
%TO.C,JP2*%
X145100000Y-56150000D03*
D22*
X145100000Y-54850000D03*
%TD*%
D12*
%TO.C,R23*%
X165200000Y-91375000D03*
X165200000Y-89825000D03*
%TD*%
D18*
%TO.C,C16*%
X113725000Y-87800800D03*
X113725000Y-86250800D03*
%TD*%
D23*
%TO.C,C8*%
X171960000Y-65300000D03*
X173510000Y-65300000D03*
%TD*%
D24*
%TO.C,L2*%
X129175000Y-77125000D03*
X129175000Y-83725000D03*
%TD*%
D25*
%TO.C,C5*%
X58737500Y-68545000D03*
X63737500Y-68545000D03*
%TD*%
D26*
%TO.C,U2*%
X79045000Y-103215000D03*
X79045000Y-100675000D03*
X79045000Y-98135000D03*
X69755000Y-98135000D03*
X69755000Y-100675000D03*
X69755000Y-103215000D03*
%TD*%
D27*
%TO.C,C11*%
X131325000Y-58005000D03*
X139725000Y-58005000D03*
%TD*%
D28*
%TO.C,U1*%
X73050000Y-89242500D03*
D29*
X73050000Y-91782500D03*
X79400000Y-91782500D03*
X79400000Y-89242500D03*
%TD*%
D30*
%TO.C,Q2*%
X87512500Y-98850000D03*
X87512500Y-96950000D03*
X85237500Y-97900000D03*
%TD*%
D18*
%TO.C,R2*%
X74500000Y-86775000D03*
X74500000Y-85225000D03*
%TD*%
D31*
%TO.C,J1*%
X93325000Y-95700000D03*
%TD*%
D18*
%TO.C,C15*%
X115700000Y-87800800D03*
X115700000Y-86250800D03*
%TD*%
D12*
%TO.C,C20*%
X95800000Y-84375000D03*
X95800000Y-85925000D03*
%TD*%
D32*
%TO.C,Q1*%
X71200000Y-88937500D03*
X69300000Y-88937500D03*
X70250000Y-91212500D03*
%TD*%
D18*
%TO.C,R22*%
X148100000Y-85715573D03*
X148100000Y-87265573D03*
%TD*%
D33*
%TO.C,D3*%
X123650000Y-81100000D03*
X123650000Y-77050000D03*
%TD*%
D15*
%TO.C,R18*%
X152725000Y-98600000D03*
X151175000Y-98600000D03*
%TD*%
D34*
%TO.C,C3*%
X56200000Y-103775000D03*
X46200000Y-103775000D03*
%TD*%
D35*
%TO.C,U4*%
X100050000Y-91075000D03*
X102350000Y-91075000D03*
D36*
X102350000Y-84775000D03*
D35*
X104650000Y-91075000D03*
%TD*%
D25*
%TO.C,C4*%
X51137500Y-68545000D03*
X56137500Y-68545000D03*
%TD*%
D18*
%TO.C,R14*%
X111825000Y-87800000D03*
X111825000Y-86250000D03*
%TD*%
D23*
%TO.C,R19*%
X161075000Y-98700000D03*
X162625000Y-98700000D03*
%TD*%
D37*
%TO.C,Q3*%
X145100000Y-67500000D03*
D38*
X146370000Y-67500000D03*
X147640000Y-67500000D03*
%TD*%
D31*
%TO.C,J7*%
X122740000Y-99550000D03*
D39*
X120200000Y-99550000D03*
X117660000Y-99550000D03*
X115120000Y-99550000D03*
%TD*%
D40*
%TO.C,U3*%
X133120000Y-72450000D03*
D41*
X134390000Y-72450000D03*
X135660000Y-72450000D03*
X136930000Y-72450000D03*
X136930000Y-67500000D03*
X135660000Y-67500000D03*
X134390000Y-67500000D03*
X133120000Y-67500000D03*
D42*
X135025000Y-69975000D03*
%TD*%
D43*
%TO.C,U5*%
X173455000Y-69250000D03*
X172185000Y-69250000D03*
X170915000Y-69250000D03*
X169645000Y-69250000D03*
X168375000Y-69250000D03*
X167105000Y-69250000D03*
X165835000Y-69250000D03*
X164565000Y-69250000D03*
X163295000Y-69250000D03*
X162025000Y-69250000D03*
X160755000Y-69250000D03*
X159485000Y-69250000D03*
X158215000Y-69250000D03*
X156945000Y-69250000D03*
D44*
X155695000Y-72290000D03*
X155695000Y-73560000D03*
X155695000Y-74830000D03*
X155695000Y-76100000D03*
X155695000Y-77370000D03*
X155695000Y-78640000D03*
X155695000Y-79910000D03*
X155695000Y-81180000D03*
X155695000Y-82450000D03*
X155695000Y-83720000D03*
D43*
X156945000Y-86750000D03*
X158215000Y-86750000D03*
X159485000Y-86750000D03*
X160755000Y-86750000D03*
X162025000Y-86750000D03*
X163295000Y-86750000D03*
X164565000Y-86750000D03*
X165835000Y-86750000D03*
X167105000Y-86750000D03*
X168375000Y-86750000D03*
X169645000Y-86750000D03*
X170915000Y-86750000D03*
X172185000Y-86750000D03*
X173455000Y-86750000D03*
D45*
X166435000Y-75100000D03*
X165035000Y-75100000D03*
X167135000Y-75800000D03*
X165735000Y-75800000D03*
X164335000Y-75800000D03*
X166435000Y-76475000D03*
X165035000Y-76475000D03*
D46*
X165735000Y-76500000D03*
D45*
X167135000Y-77200000D03*
X165735000Y-77200000D03*
X164335000Y-77200000D03*
X166435000Y-77900000D03*
X165035000Y-77900000D03*
%TD*%
D23*
%TO.C,C21*%
X164375000Y-98700000D03*
X165925000Y-98700000D03*
%TD*%
D47*
%TO.C,FL1*%
X88412500Y-60400000D03*
D48*
X81412500Y-60400000D03*
X88412500Y-68400000D03*
X81412500Y-68400000D03*
%TD*%
D12*
%TO.C,LE2*%
X97750000Y-89593787D03*
X97750000Y-88043787D03*
%TD*%
D18*
%TO.C,LE1*%
X109950000Y-86175000D03*
X109950000Y-87725000D03*
%TD*%
%TO.C,C22*%
X106600000Y-77700000D03*
X106600000Y-79250000D03*
%TD*%
D12*
%TO.C,R25*%
X173300000Y-91375000D03*
X173300000Y-89825000D03*
%TD*%
D31*
%TO.C,J2*%
X93325000Y-99475000D03*
%TD*%
D49*
%TO.C,J5*%
X82465000Y-51600000D03*
X72965000Y-51600000D03*
X63465000Y-51600000D03*
X53965000Y-51600000D03*
%TD*%
D10*
%TO.C,J9*%
X130300000Y-47000000D03*
D11*
X125300000Y-47000000D03*
X120300000Y-47000000D03*
X115300000Y-47000000D03*
%TD*%
D23*
%TO.C,C7*%
X171960000Y-62650000D03*
X173510000Y-62650000D03*
%TD*%
D12*
%TO.C,R7*%
X89400000Y-97100000D03*
X89400000Y-98650000D03*
%TD*%
%TO.C,C17*%
X109000000Y-89900000D03*
X109000000Y-91450000D03*
%TD*%
D19*
%TO.C,FB1*%
X161400000Y-59800000D03*
X161400000Y-57900000D03*
%TD*%
D18*
%TO.C,LE5*%
X148123935Y-89804786D03*
X148123935Y-91354786D03*
%TD*%
D34*
%TO.C,SW2*%
X166250000Y-105600000D03*
X159750000Y-105600000D03*
X166250000Y-101100000D03*
X159750000Y-101100000D03*
%TD*%
D50*
%TO.C,BTA16*%
X52600000Y-95255000D03*
D51*
X56955000Y-92735000D03*
X52600000Y-90175000D03*
D52*
X48155000Y-92735000D03*
%TD*%
D31*
%TO.C,J6*%
X142420000Y-99550000D03*
D39*
X139880000Y-99550000D03*
X137340000Y-99550000D03*
X134800000Y-99550000D03*
X132260000Y-99550000D03*
X129720000Y-99550000D03*
X127180000Y-99550000D03*
%TD*%
D53*
%TO.C,TP1*%
X115575000Y-94696893D03*
%TD*%
D54*
%TO.C,U7*%
X148425000Y-78500000D03*
D55*
X150965000Y-78500000D03*
X150965000Y-70880000D03*
X148425000Y-70880000D03*
%TD*%
D31*
%TO.C,J4*%
X109935000Y-99500000D03*
D39*
X107395000Y-99500000D03*
X104855000Y-99500000D03*
X102315000Y-99500000D03*
X99775000Y-99500000D03*
X97235000Y-99500000D03*
%TD*%
D18*
%TO.C,C27*%
X148300000Y-58075000D03*
X148300000Y-59625000D03*
%TD*%
%TO.C,C23*%
X119000000Y-77250000D03*
X119000000Y-78800000D03*
%TD*%
D15*
%TO.C,R3*%
X71050000Y-85225000D03*
X72600000Y-85225000D03*
%TD*%
D23*
%TO.C,R8*%
X86900000Y-100450000D03*
X85350000Y-100450000D03*
%TD*%
D56*
%TO.C,R10*%
X67125000Y-98437500D03*
X60650000Y-98437500D03*
%TD*%
D57*
%TO.C,JP1*%
X148200000Y-56150000D03*
D58*
X148200000Y-54850000D03*
D59*
X148200000Y-53550000D03*
%TD*%
D18*
%TO.C,R21*%
X142700000Y-85687574D03*
X142700000Y-87237574D03*
%TD*%
D12*
%TO.C,R15*%
X95750000Y-87800000D03*
X95750000Y-89350000D03*
%TD*%
D18*
%TO.C,C13*%
X131125000Y-68675000D03*
X131125000Y-67125000D03*
%TD*%
D10*
%TO.C,J10*%
X141300000Y-47000000D03*
D11*
X136300000Y-47000000D03*
%TD*%
D60*
%TO.C,U9*%
X155550000Y-56550000D03*
X154900000Y-56550000D03*
X154250000Y-56550000D03*
X153600000Y-56550000D03*
X152950000Y-56550000D03*
D61*
X151812500Y-57687500D03*
X151812500Y-58337500D03*
X151812500Y-58987500D03*
X151812500Y-59637500D03*
X151812500Y-60287500D03*
D60*
X152950000Y-61425000D03*
X153600000Y-61425000D03*
X154250000Y-61425000D03*
X154900000Y-61425000D03*
X155550000Y-61425000D03*
D61*
X156687500Y-60287500D03*
X156687500Y-59637500D03*
X156687500Y-58987500D03*
X156687500Y-58337500D03*
X156687500Y-57687500D03*
D62*
X154250000Y-58987500D03*
%TD*%
D10*
%TO.C,J3*%
X109300000Y-47000000D03*
D11*
X104300000Y-47000000D03*
X99300000Y-47000000D03*
X94300000Y-47000000D03*
%TD*%
D13*
%TO.C,R27*%
X145200000Y-76650000D03*
X145200000Y-78550000D03*
%TD*%
D12*
%TO.C,R24*%
X167000000Y-91375000D03*
X167000000Y-89825000D03*
%TD*%
D63*
%TO.C,F2*%
X115487500Y-91271893D03*
X111212500Y-91271893D03*
%TD*%
D23*
%TO.C,R13*%
X135425000Y-77162500D03*
X133875000Y-77162500D03*
%TD*%
D64*
%TO.C,D4*%
X102680000Y-75500000D03*
D65*
X92520000Y-75500000D03*
%TD*%
D18*
%TO.C,LE4*%
X142714361Y-89776787D03*
X142714361Y-91326787D03*
%TD*%
%TO.C,C25*%
X158900000Y-59775000D03*
X158900000Y-61325000D03*
%TD*%
%TO.C,R17*%
X158400000Y-89825000D03*
X158400000Y-91375000D03*
%TD*%
D66*
%TO.C,C2*%
X69475000Y-74975000D03*
X71375000Y-74975000D03*
%TD*%
D67*
%TO.C,C6*%
X76222500Y-57340000D03*
X76222500Y-72340000D03*
%TD*%
D68*
%TO.C,C14*%
X120475000Y-87571893D03*
X120475000Y-92971893D03*
%TD*%
D21*
%TO.C,JP3*%
X145100000Y-61200000D03*
D22*
X145100000Y-59900000D03*
%TD*%
D69*
%TO.C,D1*%
X70757300Y-86927300D03*
X73037300Y-86927300D03*
%TD*%
D70*
%TO.C,RV1*%
X70237500Y-69020000D03*
X71637500Y-61520000D03*
%TD*%
D12*
%TO.C,C19*%
X97750000Y-84375000D03*
X97750000Y-85925000D03*
%TD*%
D71*
%TO.C,F1_CH\u01AFACH\u1ECCN1*%
X44212500Y-61430000D03*
X66962500Y-61430000D03*
%TD*%
D23*
%TO.C,R6*%
X90375000Y-100475000D03*
X88825000Y-100475000D03*
%TD*%
D64*
%TO.C,D8*%
X141500000Y-66100000D03*
D65*
X141500000Y-76260000D03*
%TD*%
D34*
%TO.C,SW1*%
X148100000Y-101100000D03*
X154600000Y-101100000D03*
X148100000Y-105600000D03*
X154600000Y-105600000D03*
%TD*%
D23*
%TO.C,R1*%
X86900000Y-86450000D03*
X85350000Y-86450000D03*
%TD*%
D12*
%TO.C,C18*%
X107025000Y-89900000D03*
X107025000Y-91450000D03*
%TD*%
D18*
%TO.C,R20*%
X153100000Y-85715574D03*
X153100000Y-87265574D03*
%TD*%
D72*
%TO.C,R11*%
X65365000Y-103825000D03*
D73*
X60285000Y-103825000D03*
%TD*%
D74*
%TO.C,U6*%
X110230000Y-77300000D03*
D75*
X112770000Y-77300000D03*
X115310000Y-77300000D03*
%TD*%
D23*
%TO.C,R12*%
X135450000Y-75162500D03*
X133900000Y-75162500D03*
%TD*%
D12*
%TO.C,C26*%
X158900000Y-56850000D03*
X158900000Y-55300000D03*
%TD*%
D66*
%TO.C,R26*%
X153950000Y-53950000D03*
X155850000Y-53950000D03*
%TD*%
D15*
%TO.C,C12*%
X134390000Y-64700000D03*
X135940000Y-64700000D03*
%TD*%
M02*
