M48
; DRILL file {KiCad 7.0.10} date Thu Jun 13 10:19:58 2024
; FORMAT={-:-/ absolute / inch / decimal}
; #@! TF.CreationDate,2024-06-13T10:19:58+07:00
; #@! TF.GenerationSoftware,Kicad,Pcbnew,7.0.10
; #@! TF.FileFunction,Plated,1,2,PTH
FMAT,2
INCH
; #@! TA.AperFunction,Plated,PTH,ComponentDrill
T1C0.0079
; #@! TA.AperFunction,Plated,PTH,ViaDrill
T2C0.0118
; #@! TA.AperFunction,Plated,PTH,ViaDrill
T3C0.0197
; #@! TA.AperFunction,Plated,PTH,ComponentDrill
T4C0.0295
; #@! TA.AperFunction,Plated,PTH,ComponentDrill
T5C0.0315
; #@! TA.AperFunction,Plated,PTH,ComponentDrill
T6C0.0335
; #@! TA.AperFunction,Plated,PTH,ComponentDrill
T7C0.0354
; #@! TA.AperFunction,Plated,PTH,ComponentDrill
T8C0.0394
; #@! TA.AperFunction,Plated,PTH,ComponentDrill
T9C0.0433
; #@! TA.AperFunction,Plated,PTH,ComponentDrill
T10C0.0472
; #@! TA.AperFunction,Plated,PTH,ComponentDrill
T11C0.0512
; #@! TA.AperFunction,Plated,PTH,ComponentDrill
T12C0.0787
%
G90
G05
T1
X6.4699Y-2.9843
X6.4699Y-3.0394
X6.4974Y-2.9567
X6.4974Y-3.0108
X6.4974Y-3.0669
X6.525Y-2.9843
X6.525Y-3.0394
X6.5526Y-2.9567
X6.5526Y-3.0108
X6.5526Y-3.0669
X6.5801Y-2.9843
X6.5801Y-3.0394
T2
X3.439Y-3.7677
X3.4705Y-3.7677
X3.5059Y-3.7677
X3.5374Y-3.7677
X3.5728Y-3.7992
X3.5728Y-3.8307
X3.5728Y-3.8661
X3.5728Y-3.8976
X3.7579Y-3.2293
X3.7579Y-3.2608
X3.7894Y-3.2293
X3.7894Y-3.2598
X3.8248Y-3.2293
X3.8248Y-3.2608
X3.8248Y-3.7844
X3.8248Y-3.8159
X3.8465Y-1.7057
X3.8465Y-1.7372
X3.8563Y-3.2293
X3.8563Y-3.2598
X3.8563Y-3.7844
X3.8563Y-3.815
X3.878Y-1.7057
X3.878Y-1.7362
X3.8848Y-3.6545
X3.8848Y-3.686
X3.8917Y-3.7844
X3.8917Y-3.8159
X3.9134Y-1.7057
X3.9134Y-1.7372
X3.9163Y-3.6545
X3.9163Y-3.685
X3.9232Y-3.7844
X3.9232Y-3.815
X3.9449Y-1.7057
X3.9449Y-1.7362
X3.9518Y-3.6545
X3.9518Y-3.686
X3.9833Y-3.6545
X3.9833Y-3.685
X4.0433Y-1.7096
X4.0433Y-1.7411
X4.0748Y-1.7096
X4.0748Y-1.7402
X4.1102Y-1.7096
X4.1102Y-1.7411
X4.1417Y-1.7096
X4.1417Y-1.7402
X4.1437Y-3.7844
X4.1437Y-3.8159
X4.1752Y-3.7844
X4.1752Y-3.815
X4.188Y-3.4577
X4.188Y-3.4892
X4.2106Y-3.7844
X4.2106Y-3.8159
X4.2195Y-3.4577
X4.2195Y-3.4882
X4.2421Y-3.7844
X4.2421Y-3.815
X4.251Y-3.4577
X4.251Y-3.4892
X4.4213Y-3.1309
X4.4213Y-3.1624
X4.4528Y-3.1309
X4.4528Y-3.1614
X4.5108Y-3.2648
X4.5108Y-3.2963
X4.5423Y-3.2648
X4.5423Y-3.2953
X4.6959Y-3.7648
X4.6959Y-3.7963
X4.7274Y-3.7648
X4.7274Y-3.7953
X4.7441Y-3.0906
X4.7441Y-3.122
X4.7756Y-3.0906
X4.7756Y-3.1211
X4.8031Y-3.9882
X4.8346Y-3.9882
X4.8622Y-3.9882
X5.0049Y-2.1663
X5.0364Y-2.1654
X5.252Y-3.8189
X5.4094Y-2.5945
X5.4104Y-2.5325
X5.4104Y-2.564
X5.4134Y-2.4724
X5.4222Y-2.1732
X5.4222Y-2.2047
X5.438Y-2.686
X5.438Y-2.7175
X5.44Y-2.751
X5.44Y-2.7825
X5.4409Y-2.5945
X5.4419Y-2.5325
X5.4419Y-2.563
X5.4537Y-2.1732
X5.4537Y-2.2037
X5.4695Y-2.686
X5.4695Y-2.7165
X5.4715Y-2.751
X5.4715Y-2.7815
X5.4892Y-2.1732
X5.4892Y-2.2047
X5.6772Y-3.8819
X5.6772Y-3.9213
X5.6781Y-3.9646
X5.7756Y-3.8543
X5.7756Y-3.8819
X5.7756Y-3.9173
X5.7835Y-4.2323
X5.8307Y-4.2323
X5.8701Y-4.2362
X5.9016Y-2.2559
X5.937Y-3.9764
X5.9764Y-2.4055
X6.0197Y-2.4646
X6.0354Y-2.2874
X6.0354Y-2.3583
X6.0472Y-2.5039
X6.0551Y-4.2402
X6.0728Y-2.5472
X6.0748Y-2.3228
X6.0866Y-4.2402
X6.0984Y-2.5984
X6.1063Y-2.3543
X6.1102Y-2.2874
X6.126Y-4.2402
X6.1791Y-3.7402
X6.189Y-3.8819
X6.189Y-4.0827
X6.1929Y-2.4134
X6.2008Y-2.1772
X6.2047Y-3.1299
X6.2185Y-3.0531
X6.2323Y-3.2362
X6.2362Y-3.7402
X6.2441Y-4.2402
X6.2717Y-3.0236
X6.2894Y-4.2382
X6.3307Y-4.2402
X6.3543Y-2.4134
X6.3701Y-2.6102
X6.3701Y-3.3346
X6.3701Y-3.6496
X6.4173Y-3.0906
X6.4291Y-2.2874
X6.4291Y-3.3346
X6.4291Y-3.6732
X6.4291Y-3.9764
X6.4789Y-2.2874
X6.5079Y-4.2441
X6.5433Y-4.248
X6.5551Y-2.5354
X6.5758Y-3.4882
X6.5866Y-4.248
X6.6024Y-2.5354
X6.6102Y-3.2283
X6.6535Y-3.3386
X6.6732Y-3.6929
X6.6969Y-3.2795
X6.7303Y-2.7953
X6.7701Y-2.374
X6.7701Y-2.4094
X6.7717Y-3.2283
X6.811Y-2.374
X6.815Y-2.4094
X6.8238Y-3.4882
X6.8465Y-2.374
X6.8465Y-2.4094
T3
X3.3396Y-3.6181
T4
X5.7126Y-2.6575
X5.7626Y-2.6575
X5.8126Y-2.6575
T5
X2.0133Y-2.6986
X2.2101Y-2.6986
X2.3125Y-2.6986
X2.5094Y-2.6986
X2.7653Y-2.7173
X2.8204Y-2.422
X5.8435Y-2.7906
X5.8435Y-3.0906
X5.9435Y-2.7906
X5.9435Y-3.0906
T7
X3.2052Y-2.378
X3.2052Y-2.6929
X3.4808Y-2.378
X3.4808Y-2.6929
T8
X1.8189Y-4.0856
X2.2126Y-4.0856
X3.6742Y-3.7677
X3.6742Y-3.9163
X3.689Y-2.3661
X3.689Y-2.563
X3.8281Y-3.9173
X3.9281Y-3.9173
X4.0281Y-3.9173
X4.1281Y-3.9173
X4.2281Y-3.9173
X4.3281Y-3.9173
X4.5323Y-3.9193
X4.6323Y-3.9193
X4.7323Y-3.9193
X4.8323Y-3.9193
X4.8465Y-2.1614
X4.8465Y-2.7677
X5.0071Y-3.9193
X5.1071Y-3.9193
X5.2071Y-3.9193
X5.3071Y-3.9193
X5.4071Y-3.9193
X5.5071Y-3.9193
X5.6071Y-3.9193
T9
X2.0709Y-3.5502
X2.0709Y-3.7502
X2.2423Y-3.651
X3.0009Y-2.2575
X3.0009Y-2.848
X3.6425Y-2.9724
X4.0425Y-2.9724
X4.3398Y-3.0433
X4.4398Y-3.0433
X4.5398Y-3.0433
X5.5709Y-2.6024
X5.5709Y-3.0024
X5.8307Y-3.9803
X5.8307Y-4.1575
X6.0866Y-3.9803
X6.0866Y-4.1575
X6.2894Y-3.9803
X6.2894Y-4.1575
X6.5453Y-3.9803
X6.5453Y-4.1575
T10
X2.3734Y-4.0876
X2.5734Y-4.0876
T11
X3.7126Y-1.8504
X3.9094Y-1.8504
X4.1063Y-1.8504
X4.3031Y-1.8504
X4.5394Y-1.8504
X4.7362Y-1.8504
X4.9331Y-1.8504
X5.1299Y-1.8504
X5.3661Y-1.8504
X5.563Y-1.8504
X5.7992Y-1.8504
X5.9961Y-1.8504
X6.1929Y-1.8504
X6.3898Y-1.8504
X6.5866Y-1.8504
X6.7835Y-1.8504
T12
X1.8959Y-3.651
T6
G00X1.7406Y-2.3998
M15
G01X1.7406Y-2.4372
M16
G05
G00X2.6363Y-2.3998
M15
G01X2.6363Y-2.4372
M16
G05
T8
G00X2.1541Y-2.0315
M15
G01X2.0951Y-2.0315
M16
G05
G00X2.5281Y-2.0315
M15
G01X2.4691Y-2.0315
M16
G05
G00X2.9022Y-2.0315
M15
G01X2.8431Y-2.0315
M16
G05
G00X3.2762Y-2.0315
M15
G01X3.2171Y-2.0315
M16
G05
M30
